<mxfile host="app.diagrams.net" agent="Mozilla/5.0 (Macintosh; Intel Mac OS X 10_15_7) AppleWebKit/537.36 (KHTML, like Gecko) Chrome/130.0.0.0 Safari/537.36" version="25.0.0">
  <diagram name="Page-1" id="M7DOGkPI0bS6wT_r_996">
    <mxGraphModel dx="1093" dy="701" grid="1" gridSize="10" guides="1" tooltips="1" connect="1" arrows="1" fold="1" page="1" pageScale="1" pageWidth="850" pageHeight="1100" math="0" shadow="0">
      <root>
        <mxCell id="0" />
        <mxCell id="1" parent="0" />
        <mxCell id="OTIovvUtBVo4fI5aAUAD-1" value="Employee" style="html=1;whiteSpace=wrap;" vertex="1" parent="1">
          <mxGeometry x="110" y="120" width="100" height="20" as="geometry" />
        </mxCell>
        <mxCell id="OTIovvUtBVo4fI5aAUAD-2" value="" style="endArrow=none;dashed=1;html=1;rounded=0;entryX=0.5;entryY=1;entryDx=0;entryDy=0;" edge="1" parent="1" target="OTIovvUtBVo4fI5aAUAD-1">
          <mxGeometry width="50" height="50" relative="1" as="geometry">
            <mxPoint x="160" y="600" as="sourcePoint" />
            <mxPoint x="440" y="300" as="targetPoint" />
          </mxGeometry>
        </mxCell>
        <mxCell id="OTIovvUtBVo4fI5aAUAD-3" value="POS System" style="html=1;whiteSpace=wrap;" vertex="1" parent="1">
          <mxGeometry x="290" y="120" width="100" height="20" as="geometry" />
        </mxCell>
        <mxCell id="OTIovvUtBVo4fI5aAUAD-4" value="" style="endArrow=none;dashed=1;html=1;rounded=0;entryX=0.5;entryY=1;entryDx=0;entryDy=0;" edge="1" parent="1" target="OTIovvUtBVo4fI5aAUAD-3">
          <mxGeometry width="50" height="50" relative="1" as="geometry">
            <mxPoint x="340" y="600" as="sourcePoint" />
            <mxPoint x="620" y="300" as="targetPoint" />
          </mxGeometry>
        </mxCell>
        <mxCell id="OTIovvUtBVo4fI5aAUAD-5" value="Customer" style="html=1;whiteSpace=wrap;" vertex="1" parent="1">
          <mxGeometry x="470" y="120" width="100" height="20" as="geometry" />
        </mxCell>
        <mxCell id="OTIovvUtBVo4fI5aAUAD-6" value="" style="endArrow=none;dashed=1;html=1;rounded=0;entryX=0.5;entryY=1;entryDx=0;entryDy=0;" edge="1" parent="1" target="OTIovvUtBVo4fI5aAUAD-5" source="OTIovvUtBVo4fI5aAUAD-15">
          <mxGeometry width="50" height="50" relative="1" as="geometry">
            <mxPoint x="520" y="600" as="sourcePoint" />
            <mxPoint x="800" y="300" as="targetPoint" />
          </mxGeometry>
        </mxCell>
        <mxCell id="OTIovvUtBVo4fI5aAUAD-7" value="Database" style="html=1;whiteSpace=wrap;" vertex="1" parent="1">
          <mxGeometry x="650" y="120" width="100" height="20" as="geometry" />
        </mxCell>
        <mxCell id="OTIovvUtBVo4fI5aAUAD-8" value="" style="endArrow=none;dashed=1;html=1;rounded=0;entryX=0.5;entryY=1;entryDx=0;entryDy=0;" edge="1" parent="1" target="OTIovvUtBVo4fI5aAUAD-7">
          <mxGeometry width="50" height="50" relative="1" as="geometry">
            <mxPoint x="700" y="600" as="sourcePoint" />
            <mxPoint x="980" y="300" as="targetPoint" />
          </mxGeometry>
        </mxCell>
        <mxCell id="OTIovvUtBVo4fI5aAUAD-13" style="edgeStyle=orthogonalEdgeStyle;rounded=0;orthogonalLoop=1;jettySize=auto;html=1;exitX=0.5;exitY=0;exitDx=0;exitDy=0;entryX=0.5;entryY=1;entryDx=0;entryDy=0;" edge="1" parent="1" source="OTIovvUtBVo4fI5aAUAD-9" target="OTIovvUtBVo4fI5aAUAD-12">
          <mxGeometry relative="1" as="geometry">
            <Array as="points" />
          </mxGeometry>
        </mxCell>
        <mxCell id="OTIovvUtBVo4fI5aAUAD-21" style="edgeStyle=orthogonalEdgeStyle;rounded=0;orthogonalLoop=1;jettySize=auto;html=1;exitX=0.75;exitY=0;exitDx=0;exitDy=0;entryX=0.75;entryY=1;entryDx=0;entryDy=0;" edge="1" parent="1" source="OTIovvUtBVo4fI5aAUAD-9" target="OTIovvUtBVo4fI5aAUAD-12">
          <mxGeometry relative="1" as="geometry" />
        </mxCell>
        <mxCell id="OTIovvUtBVo4fI5aAUAD-9" value="" style="rounded=1;whiteSpace=wrap;html=1;fillColor=#dae8fc;strokeColor=#6c8ebf;rotation=90;" vertex="1" parent="1">
          <mxGeometry x="-20" y="370" width="360" height="20" as="geometry" />
        </mxCell>
        <mxCell id="OTIovvUtBVo4fI5aAUAD-10" value="" style="shape=umlActor;verticalLabelPosition=bottom;verticalAlign=top;html=1;outlineConnect=0;" vertex="1" parent="1">
          <mxGeometry x="145" y="60" width="30" height="60" as="geometry" />
        </mxCell>
        <mxCell id="OTIovvUtBVo4fI5aAUAD-34" style="edgeStyle=orthogonalEdgeStyle;rounded=0;orthogonalLoop=1;jettySize=auto;html=1;exitX=0.177;exitY=1.029;exitDx=0;exitDy=0;exitPerimeter=0;entryX=0.361;entryY=1;entryDx=0;entryDy=0;entryPerimeter=0;" edge="1" parent="1" source="OTIovvUtBVo4fI5aAUAD-12" target="OTIovvUtBVo4fI5aAUAD-12">
          <mxGeometry relative="1" as="geometry">
            <mxPoint x="320" y="340" as="targetPoint" />
            <Array as="points">
              <mxPoint x="280" y="264" />
              <mxPoint x="280" y="330" />
            </Array>
          </mxGeometry>
        </mxCell>
        <mxCell id="OTIovvUtBVo4fI5aAUAD-12" value="" style="rounded=1;whiteSpace=wrap;html=1;fillColor=#dae8fc;strokeColor=#6c8ebf;rotation=90;" vertex="1" parent="1">
          <mxGeometry x="160" y="370" width="360" height="20" as="geometry" />
        </mxCell>
        <mxCell id="OTIovvUtBVo4fI5aAUAD-14" value="Register / Log in" style="text;html=1;align=center;verticalAlign=middle;resizable=0;points=[];autosize=1;strokeColor=none;fillColor=none;" vertex="1" parent="1">
          <mxGeometry x="190" y="350" width="110" height="30" as="geometry" />
        </mxCell>
        <mxCell id="OTIovvUtBVo4fI5aAUAD-16" value="" style="endArrow=none;dashed=1;html=1;rounded=0;" edge="1" parent="1">
          <mxGeometry width="50" height="50" relative="1" as="geometry">
            <mxPoint x="520" y="410" as="sourcePoint" />
            <mxPoint x="520" y="380" as="targetPoint" />
          </mxGeometry>
        </mxCell>
        <mxCell id="OTIovvUtBVo4fI5aAUAD-17" style="edgeStyle=orthogonalEdgeStyle;rounded=0;orthogonalLoop=1;jettySize=auto;html=1;exitX=0.356;exitY=1.05;exitDx=0;exitDy=0;entryX=0.178;entryY=0.05;entryDx=0;entryDy=0;entryPerimeter=0;exitPerimeter=0;" edge="1" parent="1" source="OTIovvUtBVo4fI5aAUAD-15" target="OTIovvUtBVo4fI5aAUAD-12">
          <mxGeometry relative="1" as="geometry">
            <Array as="points" />
          </mxGeometry>
        </mxCell>
        <mxCell id="OTIovvUtBVo4fI5aAUAD-19" style="edgeStyle=orthogonalEdgeStyle;rounded=0;orthogonalLoop=1;jettySize=auto;html=1;exitX=0.717;exitY=1;exitDx=0;exitDy=0;exitPerimeter=0;entryX=0.357;entryY=-0.029;entryDx=0;entryDy=0;entryPerimeter=0;" edge="1" parent="1" source="OTIovvUtBVo4fI5aAUAD-15" target="OTIovvUtBVo4fI5aAUAD-12">
          <mxGeometry relative="1" as="geometry">
            <mxPoint x="350" y="330" as="targetPoint" />
            <Array as="points" />
          </mxGeometry>
        </mxCell>
        <mxCell id="OTIovvUtBVo4fI5aAUAD-15" value="" style="rounded=1;whiteSpace=wrap;html=1;fillColor=#dae8fc;strokeColor=#6c8ebf;rotation=90;" vertex="1" parent="1">
          <mxGeometry x="430" y="280" width="180" height="20" as="geometry" />
        </mxCell>
        <mxCell id="OTIovvUtBVo4fI5aAUAD-18" value="Buy Products" style="text;html=1;align=center;verticalAlign=middle;resizable=0;points=[];autosize=1;strokeColor=none;fillColor=none;" vertex="1" parent="1">
          <mxGeometry x="390" y="240" width="90" height="30" as="geometry" />
        </mxCell>
        <mxCell id="OTIovvUtBVo4fI5aAUAD-20" value="Makes Payment" style="text;html=1;align=center;verticalAlign=middle;resizable=0;points=[];autosize=1;strokeColor=none;fillColor=none;" vertex="1" parent="1">
          <mxGeometry x="380" y="300" width="110" height="30" as="geometry" />
        </mxCell>
        <mxCell id="OTIovvUtBVo4fI5aAUAD-22" value="Add/Remove Product" style="text;html=1;align=center;verticalAlign=middle;resizable=0;points=[];autosize=1;strokeColor=none;fillColor=none;" vertex="1" parent="1">
          <mxGeometry x="175" y="440" width="140" height="30" as="geometry" />
        </mxCell>
        <mxCell id="OTIovvUtBVo4fI5aAUAD-23" value="" style="rounded=1;whiteSpace=wrap;html=1;fillColor=#dae8fc;strokeColor=#6c8ebf;rotation=90;" vertex="1" parent="1">
          <mxGeometry x="520" y="370" width="360" height="20" as="geometry" />
        </mxCell>
        <mxCell id="OTIovvUtBVo4fI5aAUAD-25" value="Store Employees/Products Data" style="text;html=1;align=center;verticalAlign=middle;resizable=0;points=[];autosize=1;strokeColor=none;fillColor=none;" vertex="1" parent="1">
          <mxGeometry x="410" y="420" width="190" height="30" as="geometry" />
        </mxCell>
        <mxCell id="OTIovvUtBVo4fI5aAUAD-29" style="edgeStyle=orthogonalEdgeStyle;rounded=0;orthogonalLoop=1;jettySize=auto;html=1;exitX=0.606;exitY=0;exitDx=0;exitDy=0;entryX=0.606;entryY=1.05;entryDx=0;entryDy=0;entryPerimeter=0;exitPerimeter=0;" edge="1" parent="1" source="OTIovvUtBVo4fI5aAUAD-12" target="OTIovvUtBVo4fI5aAUAD-23">
          <mxGeometry relative="1" as="geometry" />
        </mxCell>
        <mxCell id="OTIovvUtBVo4fI5aAUAD-30" value="Record Sales" style="text;html=1;align=center;verticalAlign=middle;resizable=0;points=[];autosize=1;strokeColor=none;fillColor=none;" vertex="1" parent="1">
          <mxGeometry x="455.5" y="502" width="100" height="30" as="geometry" />
        </mxCell>
        <mxCell id="OTIovvUtBVo4fI5aAUAD-31" style="edgeStyle=orthogonalEdgeStyle;rounded=0;orthogonalLoop=1;jettySize=auto;html=1;exitX=0.606;exitY=0;exitDx=0;exitDy=0;entryX=0.606;entryY=1.05;entryDx=0;entryDy=0;entryPerimeter=0;exitPerimeter=0;" edge="1" parent="1">
          <mxGeometry relative="1" as="geometry">
            <mxPoint x="350.5" y="500" as="sourcePoint" />
            <mxPoint x="689.5" y="500" as="targetPoint" />
          </mxGeometry>
        </mxCell>
        <mxCell id="OTIovvUtBVo4fI5aAUAD-35" value="Calculate&amp;nbsp;&lt;div&gt;Orders&lt;/div&gt;" style="text;html=1;align=center;verticalAlign=middle;resizable=0;points=[];autosize=1;strokeColor=none;fillColor=none;" vertex="1" parent="1">
          <mxGeometry x="210" y="273" width="80" height="40" as="geometry" />
        </mxCell>
      </root>
    </mxGraphModel>
  </diagram>
</mxfile>
